<?xml version="1.0" encoding="utf-8" ?>
<svg baseProfile="full" height="200mm" version="1.1" viewBox="0,0,200,200" width="200mm" xmlns="http://www.w3.org/2000/svg" xmlns:ev="http://www.w3.org/2001/xml-events" xmlns:xlink="http://www.w3.org/1999/xlink"><defs /><rect fill="#1a1a1a" height="200" width="200" x="0" y="0" /><text alignment-baseline="middle" fill="#e1ed5e" style="dominant-baseline: central; font-size:9.0px; font-family:Arial;" text-anchor="middle" x="100.0" y="100.0">2023</text><line stroke="#e1ed5e" stroke-width="0.3" x1="100.0" x2="100.0" y1="15.0" y2="10.0" /><path d="M 100.0 14.0 a86.0,86.0 0 0,1 42.46469731375804,11.215312516191453" fill="none" id="id157" stroke="none" /><text fill="#e1ed5e" style="font-size:6.75px; font-family:Arial;" text-anchor="middle"><textPath startOffset="22.20632615414155" xlink:href="#id157">January</textPath></text><path d="M 100.0 79.0 l 0.0 -16.279307888083316 a37.279307888083316,37.279307888083316 0 0,0 0.6417020039205955,0.0055233317402974555 l -0.2802215246480671 16.27689593295158" fill="#ff9f0e" stroke="none" /><path d="M 101.44485096284872 79.0497635885617 l 0.5121197960079233 -7.42570069385553 a28.443339135105273,28.443339135105273 0 0,0 0.48815516531361913,0.037890235942340776 l -0.6398651506838837 7.415785195724726" fill="#ff1b02" stroke="none" /><path d="M 102.52436894288641 79.15227682838746 l 0.8119011687148929 -6.70515728525917 a27.754133380961967,27.754133380961967 0 0,0 0.47378324000493344,0.06151066222267514 l -0.9271991372276724 6.690188299872358" fill="#ff1001" stroke="none" /><path d="M 104.66035177308747 79.52364482259891 l 2.527567281355456 -11.10546325852234 a32.389464892968775,32.389464892968775 0 0,0 0.5425641210145399,0.12840739790045108 l -2.7183550893325195 11.06030994848102" fill="#ff5708" stroke="none" /><path d="M 105.01212808612495 79.60689891045804 l 2.0317513972721004 -8.266690499807616 a29.512707299086856,29.512707299086856 0 0,0 0.4922875732243194,0.12549506365493526 l -2.1737478591814448 8.230492439983813" fill="#ff2c04" stroke="none" /><path d="M 106.0581310904928 79.89281104454417 l 6.030951104865554 -20.016977453154226 a41.90578287434756,41.90578287434756 0 0,0 0.6888804388682599,0.21403850565451896 l -6.374616916444532 19.910198812617185" fill="#ffdf14" stroke="none" /><line stroke="#e1ed5e" stroke-width="0.3" x1="143.23703022742887" x2="145.7803849466894" y1="26.81831364943548" y2="22.513508569990506" /><path d="M 143.74570117128098 25.957352633546492 a86.0,86.0 0 0,1 28.547481713284135,27.462654790039103" fill="none" id="id158" stroke="none" /><text fill="#e1ed5e" style="font-size:6.75px; font-family:Arial;" text-anchor="middle"><textPath startOffset="19.985693538727396" xlink:href="#id158">February</textPath></text><path d="M 111.60114157652 82.49532879139004 l 4.121959426031273 -6.219521071438553 a28.46143363355302,28.46143363355302 0 0,0 0.4060434241462974,0.2741623325223692 l -4.228407544584113 6.147646826617514" fill="#ff1b02" stroke="none" /><path d="M 111.90073688211348 82.69761687909136 l 6.731359654653395 -9.786668239383548 a32.878134450664135,32.878134450664135 0 0,0 0.463532942829697,0.3247344488910937 l -6.898823737066743 9.669348947728519" fill="#ff5f08" stroke="none" /><path d="M 112.77801427241765 83.33499621200491 l 3.861842797263734 -5.036590464917754 a27.346737217033507,27.346737217033507 0 0,0 0.37109189664116904,0.2896431114905618 l -3.9479672490643334 4.9693689642039685" fill="#ff0a01" stroke="none" /><path d="M 113.6212207817346 84.01681056812373 l 5.630002393931937 -6.606265048195757 a29.679842443425585,29.679842443425585 0 0,0 0.38598804888030963,0.33472503239961043 l -5.742884241459011 6.508375022376476" fill="#ff2e04" stroke="none" /><path d="M 115.68641384162765 86.03803664274999 l 23.515275564657948 -20.930176845017098 a52.480795537049076,52.480795537049076 0 0,0 0.5948026830345253,0.6799622887488008 l -23.872070111270318 20.52229900006535" fill="#99ff23" stroke="none" /><path d="M 116.38621287248628 86.86637796730983 l 5.935329739578521 -4.757193016203136 a28.606511980595123,28.606511980595123 0 0,0 0.30465379394761805,0.3868793802363118 l -6.016337614120103 4.654321242013786" fill="#ff1e03" stroke="none" /><path d="M 116.82858285166822 87.43820079747576 l 7.971834120270515 -5.950624623436003 a30.947867743901305,30.947867743901305 0 0,0 0.31498649523120364,0.4296412255064186 l -8.073083228015344 5.8125209542580905" fill="#ff4206" stroke="none" /><path d="M 117.04232023915458 87.72973835380427 l 9.23804310583269 -6.6512777847569025 a32.3833622711053,32.3833622711053 0 0,0 0.3218094778237498,0.45517668440883435 l -9.351165203460322 6.491274600016275" fill="#ff5708" stroke="none" /><path d="M 117.2510076193507 88.02491185347247 l 11.966886498524493 -8.307023208231287 a35.56753263427479,35.56753263427479 0 0,0 0.3447942600412978,0.5059430312335663 l -12.108105224234524 8.099802153727314" fill="#ff860c" stroke="none" /><line stroke="#e1ed5e" stroke-width="0.3" x1="172.23445277983987" x2="176.4835382374775" y1="55.19839476539836" y2="52.563006222186495" /><path d="M 173.08426987136738 54.67131705675599 a86.0,86.0 0 0,1 12.851231095245387,41.99856678651699" fill="none" id="id159" stroke="none" /><text fill="#e1ed5e" style="font-size:6.75px; font-family:Arial;" text-anchor="middle"><textPath startOffset="22.20632615414155" xlink:href="#id159">March</textPath></text><path d="M 117.84615892207809 88.93136811851018 l 8.511407349614565 -5.278986652401745 a31.01557562735705,31.01557562735705 0 0,0 0.2774922222590109,0.4561242517267072 l -8.6010153701598 5.131694627467956" fill="#ff4306" stroke="none" /><path d="M 118.3937258080291 89.86733742301442 l 25.962667001920817 -14.302210823120339 a50.64141211686125,50.64141211686125 0 0,0 0.4140343002192845,0.7671426773938862 l -26.205009401358566 13.853187162393994" fill="#afff20" stroke="none" /><path d="M 118.56541770881063 90.18545643968196 l 8.72914680074643 -4.614633124019553 a30.87384640037914,30.87384640037914 0 0,0 0.24433057303840527,0.4719688982507603 l -8.807286806944951 4.463691503508448" fill="#ff4006" stroke="none" /><path d="M 119.04729006885535 91.15688171328212 l 5.625174614089996 -2.6116095421457404 a27.20186212678331,27.20186212678331 0 0,0 0.19351881790590045,0.42639306336427163 l -5.669295748959243 2.5143944699394063" fill="#ff0801" stroke="none" /><path d="M 119.47837535516314 92.15188598940014 l 7.0993082015173945 -2.8604120798568764 a28.653896668150367,28.653896668150367 0 0,0 0.1803919028834634,0.459077716552979 l -7.147493654282559 2.737785358408113" fill="#ff1e03" stroke="none" /><path d="M 119.61058180528143 92.48833698450437 l 29.909168730756896 -11.456447279832293 a53.02824625920787,53.02824625920787 0 0,0 0.31916795271284426,0.855211432947834 l -30.101941271971366 10.939912709855125" fill="#93ff23" stroke="none" /><path d="M 120.37134235888165 94.90015583598534 l 30.52090094966563 -7.640725674651438 a52.46277298037441,52.46277298037441 0 0,0 0.21176773124279444,0.877913962543021 l -30.647901481169246 7.11422648044901" fill="#99ff23" stroke="none" /><path d="M 120.45610955862082 95.25157060432595 l 5.846685717281073 -1.3571776318290734 a27.00213836903113,27.00213836903113 0 0,0 0.10120094536144743,0.4536639945441293 l -5.869181049644558 1.25633546773498" fill="#ff0400" stroke="none" /><path d="M 120.78858239683441 97.02765380044208 l 22.697662337076334 -3.2453059616383895 a43.92849507387214,43.92849507387214 0 0,0 0.10058370469142411,0.7494654307462446 l -22.750162040825593 2.8541221888274806" fill="#fffa17" stroke="none" /><path d="M 120.83666639777658 97.38593545837742 l 16.936658424332606 -2.1247889367440016 a38.06942080470882,38.06942080470882 0 0,0 0.07597504701348451,0.6509078056322298 l -16.970723824349676 1.8329373927869193" fill="#ffaa0f" stroke="none" /><line stroke="#e1ed5e" stroke-width="0.3" x1="184.98032266829074" x2="189.97916517819016" y1="98.17113171792111" y2="98.06355123074" /><path d="M 185.9800911702706 98.14961562048488 a86.0,86.0 0 0,1 -9.607161424134198,41.387399972396054" fill="none" id="id160" stroke="none" /><text fill="#e1ed5e" style="font-size:6.75px; font-family:Arial;" text-anchor="middle"><textPath startOffset="21.466115282336823" xlink:href="#id160">April</textPath></text><path d="M 120.99513854157772 99.54816195383933 l 15.351008823460214 -0.33037028165598376 a36.354563374481046,36.354563374481046 0 0,0 0.008079356595583903,0.625755072091332 l -15.354421187173513 0.06607895150418912" fill="#ff910d" stroke="none" /><path d="M 120.99824983174949 100.27111621757518 l 10.728721922947551 0.13852252118495553 a31.729616143591105,31.729616143591105 0 0,0 -0.011751950733029861,0.5460669721602004 l -10.724747909529516 -0.3231793091352707" fill="#ff4d07" stroke="none" /><path d="M 120.9764740272857 100.99374915477107 l 28.33110686181237 1.3421709225789167 a49.362881355758766,49.362881355758766 0 0,0 -0.04751447442408713,0.8484028592605782 l -28.303806036500752 -1.8296454981749182" fill="#bfff1e" stroke="none" /><path d="M 120.89721153311464 102.0752229133903 l 9.757332353280958 0.9689637127425469 a30.805326375444885,30.805326375444885 0 0,0 -0.05694247006684351,0.5272165526130638 l -9.739207581713062 -1.136776587240402" fill="#ff3f05" stroke="none" /><path d="M 120.8583938346157 102.4346265915055 l 14.600039917382608 1.7041410619503958 a35.6991585591894,35.6991585591894 0 0,0 -0.07649563125338033,0.609745445812401 l -14.56854277688238 -1.9552042620501917" fill="#ff880c" stroke="none" /><path d="M 120.41448212921028 104.9243191809786 l 61.24344638763086 14.772957542935806 a84.0,84.0 0 0,0 -0.35115474281975656,1.4026886424104164 l -60.980080330516046 -15.82497402474362" fill="#4dd2ff" stroke="none" /><path d="M 119.79798401119884 107.00284435728193 l 9.752155059854141 3.44948374509282 a31.344247987123005,31.344247987123005 0 0,0 -0.18429781825930702,0.5071084430862467 l -9.691332980589609 -3.6168399851851984" fill="#ff4806" stroke="none" /><path d="M 119.67450827220406 107.3425965602758 l 5.360072873679086 2.0003982869908157 a26.72118646066934,26.72118646066934 0 0,0 -0.1645334412101468,0.4295448959704402 l -5.324845152875433 -2.0923667497944" fill="#ff0000" stroke="none" /><path d="M 119.54520255179757 107.68017299344265 l 9.455122594209996 3.7153351061620197 a31.158890599992713,31.158890599992713 0 0,0 -0.20045165060471065,0.4975045578806749 l -9.389768329347893 -3.877539031885508" fill="#ff4506" stroke="none" /><path d="M 118.64920377521936 109.65438752849418 l 19.529812293435533 10.110264143829841 a42.9916122481922,42.9916122481922 0 0,0 -0.34587262174762085,0.6542606548457746 l -19.35288716346302 -10.444939813761751" fill="#ffed16" stroke="none" /><line stroke="#e1ed5e" stroke-width="0.3" x1="174.80103733775053" x2="179.2010983576182" y1="140.37084112569926" y2="142.7455964860345" /><path d="M 175.68104954172406 140.8457921977663 a86.0,86.0 0 0,1 -30.038265399797805,32.042727171017184" fill="none" id="id161" stroke="none" /><text fill="#e1ed5e" style="font-size:6.75px; font-family:Arial;" text-anchor="middle"><textPath startOffset="22.206326154141568" xlink:href="#id161">May</textPath></text><path d="M 118.48025628344425 109.97397251340804 l 14.341467321669574 7.740228202160669 a37.29689594861671,37.29689594861671 0 0,0 -0.30978373846053203,0.5623474680753101 l -14.206107173757534 -7.9859461886337835" fill="#ff9f0e" stroke="none" /><path d="M 118.30583269289576 110.29060199501025 l 14.03965894431388 7.8923775151560935 a37.10595064298889,37.10595064298889 0 0,0 -0.31778243590523236,0.5540804629620099 l -13.901724512256267 -8.132877823976418" fill="#ff9c0e" stroke="none" /><path d="M 117.75023020441432 111.22182372390056 l 7.373603715732229 4.661645519801041 a29.723587032232857,29.723587032232857 0 0,0 -0.2771301801857223,0.4301121939023985 l -7.292268672169457 -4.787879313624893" fill="#ff2f04" stroke="none" /><path d="M 117.35343817320211 111.8261652097733 l 6.595907674884415 4.495033957711745 a28.98193763046172,28.98193763046172 0 0,0 -0.2844909681822346,0.4098304580055444 l -6.517555799540045 -4.607905677904308" fill="#ff2303" stroke="none" /><path d="M 116.0416608686014 113.55231037782055 l 6.844667713100283 5.7825098062348985 a29.960295517557455,29.960295517557455 0 0,0 -0.33620800258025885,0.39108586272622475 l -6.744117200949245 -5.899472768122651" fill="#ff3204" stroke="none" /><path d="M 115.80600337817218 113.82643327865902 l 11.01263608722419 9.633395263753636 a35.63148857421361,35.63148857421361 0 0,0 -0.40779585488898046,0.4581629659819457 l -10.84518138268687 -9.82153239947645" fill="#ff870c" stroke="none" /><path d="M 114.0293411484842 115.62618273729858 l 5.852957117329963 6.519149866054259 a29.761074248822386,29.761074248822386 0 0,0 -0.384141274326578,0.33896001125309416 l -5.739873490096797 -6.618933019079642" fill="#ff2f04" stroke="none" /><path d="M 112.34349029814194 116.9893568818739 l 5.5019554806820175 7.572792050848012 a30.360485754318187,30.360485754318187 0 0,0 -0.4254410128918612,0.3035408665388543 l -5.370787139941272 -7.666377179231085" fill="#ff3905" stroke="none" /><path d="M 112.04921762599082 117.19931262002967 l 10.670440809103113 15.231216910998018 a39.596996414755935,39.596996414755935 0 0,0 -0.5616044177022586,0.3862766394780999 l -10.40667950677797 -15.412634339841212" fill="#ffbf11" stroke="none" /><path d="M 111.7513745106137 117.40417183066458 l 4.99986593509201 7.404965758348834 a29.934885407838884,29.934885407838884 0 0,0 -0.4295303982715097,0.284669326397621 l -4.871660838080536 -7.489933105837774" fill="#ff3204" stroke="none" /><line stroke="#e1ed5e" stroke-width="0.3" x1="143.8653032363475" x2="146.44561519142675" y1="172.8068346515853" y2="177.08958963109032" /><path d="M 144.38136562736335 173.6633856474863 a86.0,86.0 0 0,1 -40.68145358897372,12.25698825130547" fill="none" id="id162" stroke="none" /><text fill="#e1ed5e" style="font-size:6.75px; font-family:Arial;" text-anchor="middle"><textPath startOffset="21.466115282336833" xlink:href="#id162">June</textPath></text><path d="M 110.21172684928248 118.3499491758327 l 7.442796073210942 13.374322647408471 a36.30580673027029,36.30580673027029 0 0,0 -0.5486968977568321,0.29919329762268165 l -7.211476363585461 -13.500456596790922" fill="#ff910d" stroke="none" /><path d="M 109.89434966115114 118.52300852407294 l 3.4309846861412825 6.423075872979084 a28.28200244346169,28.28200244346169 0 0,0 -0.43138012749565047,0.22567769442180072 l -3.3199136561191365 -6.4811829863456" fill="#ff1902" stroke="none" /><path d="M 107.93186726928326 119.44442032107085 l 6.929751510293023 16.987803314425463 a39.34685034124422,39.34685034124422 0 0,0 -0.6293227501789922,0.25042051003759214 l -6.636307684072165 -17.104570668869123" fill="#ffbc11" stroke="none" /><path d="M 107.59598834532513 119.57807347666477 l 5.208144162775988 13.423589460697976 a35.39852491158797,35.39852491158797 0 0,0 -0.5699664482746264,0.21551254064716863 l -4.9763074937410865 -13.511250251451775" fill="#ff840c" stroke="none" /><path d="M 105.53697534728816 120.25689768951611 l 1.774467680553986 6.4918494311050035 a27.729995883020212,27.729995883020212 0 0,0 -0.461518980091114,0.12189135732279845 l -1.6624582576513747 -6.521432137731386" fill="#ff1001" stroke="none" /><path d="M 105.18746579009965 120.34920634021253 l 2.2412062224377522 8.79172407428598 a30.07289466101494,30.07289466101494 0 0,0 -0.5027138518577484,0.1235548338193855 l -2.0895390858367926 -8.829000166419396" fill="#ff3405" stroke="none" /><path d="M 103.7750983002368 120.6578951692458 l 1.4156751039676594 7.746783147246933 a28.87507365873253,28.87507365873253 0 0,0 -0.48970891344656703,0.08514217172663663 l -1.2821172190490424 -7.7700038974945755" fill="#ff2203" stroke="none" /><path d="M 103.41894727170886 120.7198165907248 l 2.7633476139244766 16.746691652929293 a37.973148539787005,37.973148539787005 0 0,0 -0.6458403240132631,0.10086697623376657 l -2.474671426302696 -16.791776936510164" fill="#ffa80f" stroke="none" /><line stroke="#e1ed5e" stroke-width="0.3" x1="102.19456741930631" x2="102.32365962044197" y1="184.97166512339345" y2="189.96999836594603" /><path d="M 102.22038585953345 185.97133177190398 a86.0,86.0 0 0,1 -42.740103519485714,-10.115201625700543" fill="none" id="id163" stroke="none" /><text fill="#e1ed5e" style="font-size:6.75px; font-family:Arial;" text-anchor="middle"><textPath startOffset="22.20632615414155" xlink:href="#id163">July</textPath></text><path d="M 100.54218724476979 120.99299961872073 l 0.19213302685970565 7.439216983649271 a28.441697684656777,28.441697684656777 0 0,0 -0.48952266814863493,0.008427576669621375 l -0.06405066881840277 -7.441422037598053" fill="#ff1b02" stroke="none" /><line stroke="#e1ed5e" stroke-width="0.3" x1="58.666819895761336" x2="56.23545636021788" y1="174.27360380694188" y2="178.64263932499728" /><path d="M 58.180547188652646 175.14741091055294 a86.0,86.0 0 0,1 -31.652253787137756,-30.449443065178592" fill="none" id="id164" stroke="none" /><text fill="#e1ed5e" style="font-size:6.75px; font-family:Arial;" text-anchor="middle"><textPath startOffset="22.20632615414155" xlink:href="#id164">August</textPath></text><line stroke="#e1ed5e" stroke-width="0.3" x1="26.63291911575756" x2="22.317208475507996" y1="142.92168965132927" y2="145.44649492493687" /><path d="M 25.769776987707644 143.4266507060508 a86.0,86.0 0 0,1 -11.730757126820373,-40.83630448921669" fill="none" id="id165" stroke="none" /><text fill="#e1ed5e" style="font-size:6.75px; font-family:Arial;" text-anchor="middle"><textPath startOffset="21.46611528233685" xlink:href="#id165">September</textPath></text><line stroke="#e1ed5e" stroke-width="0.3" x1="15.007084014347285" x2="10.007500721073583" y1="101.09737516637583" y2="101.16192664675087" /><path d="M 14.007167355692545 101.11028546245083 a86.0,86.0 0 0,1 10.666146001902534,-42.60595125391555" fill="none" id="id166" stroke="none" /><text fill="#e1ed5e" style="font-size:6.75px; font-family:Arial;" text-anchor="middle"><textPath startOffset="22.20632615414155" xlink:href="#id166">October</textPath></text><line stroke="#e1ed5e" stroke-width="0.3" x1="26.266209847984243" x2="21.928928074336255" y1="57.711370442889674" y2="55.22380399835377" /><path d="M 25.398753493254645 57.213857153982495 a86.0,86.0 0 0,1 29.58750427330803,-30.492523968695096" fill="none" id="id167" stroke="none" /><text fill="#e1ed5e" style="font-size:6.75px; font-family:Arial;" text-anchor="middle"><textPath startOffset="21.46611528233685" xlink:href="#id167">November</textPath></text><line stroke="#e1ed5e" stroke-width="0.3" x1="56.762969772571076" x2="54.21961505331055" y1="26.818313649435495" y2="22.513508569990535" /><path d="M 56.25429882871897 25.957352633546506 a86.0,86.0 0 0,1 42.265352541879196,-11.944610805530505" fill="none" id="id168" stroke="none" /><text fill="#e1ed5e" style="font-size:6.75px; font-family:Arial;" text-anchor="middle"><textPath startOffset="22.20632615414155" xlink:href="#id168">December</textPath></text></svg>